# xmcd CD database file
#
# Track frame offsets:
#	150
#	17217
#	25002
#	38100
#	46665
#	57702
#	70465
#	84530
#	97962
#	126017
#	137672
#	150110
#	161090
#	175192
#	188917
#	202332
#	220165
#	236727
#	246265
#	261990
#	272002
#	282282
#
# Disc length: 3921 seconds
#
# Revision: 0
# Processed by: cddbd v1.4PL0 Copyright (c) Steve Scherf et al.
# Submitted via: CDex 1.51
#
DISCID=3f0f4f16
DTITLE=Satya Sai Baba and Various - Bhajans with Satya Sai Baba
DYEAR=1994
DGENRE=New Age
TTITLE0=Prema Mudita Manase Kaho Rama
TTITLE1=Satyam Jnanani Anantam Brahma
TTITLE2=Sai Bhajana Bina Sukha Shanti Nahim
TTITLE3=Subrahmanyam Subrahmanyam
TTITLE4=Bhajore Bhai Sai Ram
TTITLE5=Hari Hari Narayana
TTITLE6=Hara Hara Hara Hara Namami Shankara
TTITLE7=Shiva Shankara
TTITLE8=Hari Om Hari Om Hari Om Narayana
TTITLE9=Jaya Nandalala Jaya Jai Gopala
TTITLE10=Sai Madhava Madana Gopala
TTITLE11=Gopala Nandalala
TTITLE12=Sundara Shyama Murari Sai
TTITLE13=Pratah Smaranam Sri Guru Caranam
TTITLE14=Bola Natha Hare Jagadisha
TTITLE15=Hare Krishna Hare Krishna
TTITLE16=Nirupama Guna Sadhana Sharana Niraja
TTITLE17=Bhajo Radhe Govinda Bhajo Shyama Gopal
TTITLE18=Raghupate Raghava Raja Rama
TTITLE19=Govinda Murahari Madhava
TTITLE20=Shivaya Namah Shiva Shivaya Namah
TTITLE21=Om Jai Jagadisha Hare
EXTD=YEAR: 1994
EXTT0=
EXTT1=
EXTT2=
EXTT3=
EXTT4=
EXTT5=
EXTT6=
EXTT7=
EXTT8=
EXTT9=
EXTT10=
EXTT11=
EXTT12=
EXTT13=
EXTT14=
EXTT15=
EXTT16=
EXTT17=
EXTT18=
EXTT19=
EXTT20=
EXTT21=
PLAYORDER=
